<svg width="223" height="34" viewBox="0 0 223 34" fill="none" xmlns="http://www.w3.org/2000/svg">
<path d="M21.1192 4.30049H25.2192L14.8872 33.0005H9.55715L0.291152 4.30049H4.39115L10.2952 22.8735C10.6778 24.1308 11.0195 25.4702 11.3202 26.8915C11.6482 28.2855 11.8532 29.1875 11.9352 29.5975H12.6732C12.7552 29.1875 12.9738 28.2855 13.3292 26.8915C13.7118 25.4702 14.1218 24.1308 14.5592 22.8735L21.1192 4.30049ZM36.0537 33.4925C33.5391 33.4925 31.6941 32.7955 30.5187 31.4015C29.3434 29.9802 28.7557 27.8208 28.7557 24.9235V11.8445H32.8557V24.8825C32.8557 26.6865 33.1427 28.1078 33.7167 29.1465C34.3181 30.1852 35.3841 30.7045 36.9147 30.7045C38.9101 30.7045 40.6457 30.1852 42.1217 29.1465V11.8445H46.2217V28.8595L47.1647 33.3285H45.1557C44.8004 33.3285 44.4724 33.2465 44.1717 33.0825C43.8984 32.9458 43.6524 32.6725 43.4337 32.2625L42.8597 31.1965H42.2037C41.3564 32.0985 40.4954 32.6998 39.6207 33.0005C38.7461 33.3285 37.5571 33.4925 36.0537 33.4925ZM57.3587 26.7275C56.812 27.3562 56.2243 27.9985 55.5957 28.6545C54.967 29.3105 54.557 29.7342 54.3657 29.9255L54.6527 30.5405C54.8987 30.4858 55.4317 30.3765 56.2517 30.2125C57.0717 30.0485 57.7823 29.9665 58.3837 29.9665H68.0187V33.0005H50.1017V29.9665L60.3517 18.1175C60.8983 17.4888 61.4997 16.8465 62.1557 16.1905C62.8117 15.5072 63.2353 15.0698 63.4267 14.8785L63.0577 14.2225C62.9483 14.2498 62.7023 14.3182 62.3197 14.4275C61.937 14.5368 61.445 14.6462 60.8437 14.7555C60.2697 14.8375 59.682 14.8785 59.0807 14.8785H51.3317V11.8445H67.6087V14.8785L57.3587 26.7275ZM79.3359 33.4925C76.8213 33.4925 74.9763 32.7955 73.8009 31.4015C72.6256 29.9802 72.0379 27.8208 72.0379 24.9235V11.8445H76.1379V24.8825C76.1379 26.6865 76.4249 28.1078 76.9989 29.1465C77.6003 30.1852 78.6663 30.7045 80.1969 30.7045C82.1923 30.7045 83.9279 30.1852 85.4039 29.1465V11.8445H89.5039V28.8595L90.4469 33.3285H88.4379C88.0826 33.3285 87.7546 33.2465 87.4539 33.0825C87.1806 32.9458 86.9346 32.6725 86.7159 32.2625L86.1419 31.1965H85.4859C84.6386 32.0985 83.7776 32.6998 82.9029 33.0005C82.0283 33.3285 80.8393 33.4925 79.3359 33.4925ZM112.695 27.9575C112.695 28.8868 112.791 29.5565 112.982 29.9665C113.173 30.3492 113.597 30.6362 114.253 30.8275L113.679 33.2875C113.652 33.3148 113.542 33.3558 113.351 33.4105C113.187 33.4652 112.955 33.4925 112.654 33.4925C111.861 33.4652 111.26 33.3285 110.85 33.0825C110.44 32.8638 110.044 32.4128 109.661 31.7295L109.046 30.6225H108.39C107.652 31.6065 106.805 32.3308 105.848 32.7955C104.891 33.2602 103.73 33.4925 102.363 33.4925C100.258 33.4925 98.5909 32.9458 97.3609 31.8525C96.1309 30.7318 95.5159 29.1328 95.5159 27.0555C95.5159 24.9235 96.1992 23.3382 97.5659 22.2995C98.9326 21.2608 101.065 20.6322 103.962 20.4135L108.636 20.0445V18.6915C108.636 17.0515 108.281 15.8898 107.57 15.2065C106.859 14.4958 105.547 14.1405 103.634 14.1405C102.24 14.1405 100.313 14.4412 97.8529 15.0425L97.1149 12.6235C98.0442 12.2682 99.2196 11.9675 100.641 11.7215C102.062 11.4755 103.292 11.3525 104.331 11.3525C107.092 11.3525 109.169 11.9128 110.563 13.0335C111.984 14.1268 112.695 15.8898 112.695 18.3225V27.9575ZM104.7 22.8735C101.365 23.1195 99.6979 24.4452 99.6979 26.8505C99.6979 29.4198 100.983 30.7045 103.552 30.7045C105.001 30.7045 106.203 30.3628 107.16 29.6795C108.144 28.9688 108.636 27.8208 108.636 26.2355V22.5865L104.7 22.8735ZM123.824 2.66049V33.0005H119.724V2.66049H123.824Z" fill="white"/>
<path d="M149.723 19.5525C150.133 19.6072 150.543 19.6482 150.953 19.6755C151.363 19.7028 151.759 19.7165 152.142 19.7165C153.071 19.7165 153.932 19.5798 154.725 19.3065C155.545 19.0332 156.242 18.6232 156.816 18.0765C157.417 17.5298 157.882 16.8602 158.21 16.0675C158.538 15.2748 158.702 14.3455 158.702 13.2795C158.702 11.1475 158.059 9.54849 156.775 8.48249C155.517 7.41649 153.864 6.88349 151.814 6.88349H149.723V19.5525ZM140.908 33.0005V31.1145L144.68 30.2125V7.08849L140.908 6.18649V4.30049H151.814C159.85 4.30049 163.868 7.29349 163.868 13.2795C163.868 16.3135 162.815 18.5822 160.711 20.0855C158.633 21.5615 155.886 22.2995 152.47 22.2995C151.513 22.2995 150.597 22.2312 149.723 22.0945V30.2125L154.725 31.1145V33.0005H140.908ZM165.39 33.0005V31.2375L168.875 30.4175V3.52149H165.39V1.75849L171.95 0.200488H173.795V30.4175L177.28 31.2375V33.0005H165.39ZM178.675 14.2635V12.5005H187.039V26.6455C187.039 29.3788 188.214 30.7455 190.565 30.7455C192.423 30.7455 194.173 30.0485 195.813 28.6545V15.0835L193.148 14.2635V12.5005H200.692V30.3355H203.89V31.6885C203.234 32.2625 202.496 32.7272 201.676 33.0825C200.883 33.4378 200.09 33.6155 199.298 33.6155C198.669 33.6155 198.109 33.4925 197.617 33.2465C197.152 33.0278 196.797 32.7408 196.551 32.3855C196.305 32.0302 196.127 31.7432 196.018 31.5245C195.908 31.2785 195.84 31.0735 195.813 30.9095C193.653 32.7135 191.33 33.6155 188.843 33.6155C186.656 33.6155 184.989 33.0278 183.841 31.8525C182.72 30.6772 182.16 29.1192 182.16 27.1785V15.0835L178.675 14.2635ZM206.697 32.6725V26.8095H208.583L210.141 31.1145C211.097 31.2785 212.163 31.3605 213.339 31.3605C215.088 31.3605 216.318 31.1418 217.029 30.7045C217.767 30.2398 218.136 29.4608 218.136 28.3675C218.136 27.5202 217.739 26.8232 216.947 26.2765C216.154 25.7025 214.787 25.0328 212.847 24.2675C211.015 23.5022 209.594 22.6002 208.583 21.5615C207.571 20.4955 207.066 19.1562 207.066 17.5435C207.066 15.7122 207.831 14.3182 209.362 13.3615C210.92 12.3775 212.942 11.8855 215.43 11.8855C217.589 11.8855 219.543 12.1452 221.293 12.6645V18.2405H219.571L218.218 14.3865C217.425 14.1678 216.496 14.0585 215.43 14.0585C213.954 14.0585 212.915 14.2908 212.314 14.7555C211.74 15.1928 211.453 15.8625 211.453 16.7645C211.453 17.2838 211.644 17.7485 212.027 18.1585C212.409 18.5685 212.833 18.9102 213.298 19.1835C213.79 19.4295 214.569 19.7848 215.635 20.2495C218.122 21.2882 219.899 22.3405 220.965 23.4065C222.058 24.4452 222.605 25.7982 222.605 27.4655C222.605 29.4608 221.798 30.9915 220.186 32.0575C218.573 33.0962 216.468 33.6155 213.872 33.6155C211.302 33.6155 208.911 33.3012 206.697 32.6725Z" fill="#FF0000"/>
</svg>
